# xmcd
#
# Track frame offsets: 
#        217
#        17090
#        39870
#        63230
#        76875
#        97300
#        117855
#        132090
#        148635
#        171172
#        192072
#        213940
#
# Disc length: 3172 seconds
#
# Revision: 3
# Processed by: cddbd v1.5.2PL0 Copyright (c) Steve Scherf et al.
# Submitted via: ExactAudioCopyFreeDBPlugin 1.0
#
DISCID=9c0c620c
DTITLE=Earl King - Hard River to Cross
DYEAR=1993
DGENRE=R&B
TTITLE0=Medieval Days
TTITLE1=Seduction
TTITLE2=Hard River To Cross
TTITLE3=Clairvoyant Lady
TTITLE4=It Hurts to Love Someone
TTITLE5=No City Like New Orleans
TTITLE6=You Better Know
TTITLE7=Big Foot
TTITLE8=Your Love Means More to Me than Gold
TTITLE9=I'm Still Holding On
TTITLE10=Handy Wrap
TTITLE11=Love Can Save the World
EXTD=
EXTT0=
EXTT1=
EXTT2=
EXTT3=
EXTT4=
EXTT5=
EXTT6=
EXTT7=
EXTT8=
EXTT9=
EXTT10=
EXTT11=
PLAYORDER=
